# xmcd
#
# Track frame offsets: 
#        150
#        13120
#        32007
#        54542
#        73790
#        86292
#        108067
#        122372
#        135407
#        158202
#        180967
#        212890
#        232697
#        255220
#        274962
#        291185
#        307662
#        324317
#        337910
#
# Disc length: 4754 seconds
#
# Revision: 26
# Processed by: cddbd v1.5.2PL0 Copyright (c) Steve Scherf et al.
# Submitted via: ExactAudioCopy v1.0b3
#
DISCID=ec129013
DTITLE=Various Artist - The Cream of Clapton
DYEAR=1995
DGENRE=Rock
TTITLE0=Cream - I Feel Free
TTITLE1=Cream - Sunshine of Your Love
TTITLE2=Cream - White Room
TTITLE3=Cream - Crossroads
TTITLE4=Cream - Badge
TTITLE5=Blind Faith - Presence of the Lord
TTITLE6=Eric Clapton - Blues Power
TTITLE7=Eric Clapton - After Midnight
TTITLE8=Eric Clapton - Let It Rain
TTITLE9=Derek and the Dominos - Bell Bottom Blues
TTITLE10=Derek and the Dominos - Layla
TTITLE11=Eric Clapton - I Shot the Sheriff
TTITLE12=Eric Clapton - Let It Grow
TTITLE13=Eric Clapton - Knockin' on Heaven's Door
TTITLE14=Eric Clapton - Hello Old Friend
TTITLE15=Eric Clapton - Cocaine
TTITLE16=Eric Clapton - Wonderful Tonight
TTITLE17=Eric Clapton - Promises
TTITLE18=Eric Clapton - I Can't Stand It
EXTD=YEAR: 1995
EXTT0=
EXTT1=
EXTT2=
EXTT3=
EXTT4=
EXTT5=
EXTT6=
EXTT7=
EXTT8=
EXTT9=
EXTT10=
EXTT11=
EXTT12=
EXTT13=
EXTT14=
EXTT15=
EXTT16=
EXTT17=
EXTT18=
PLAYORDER=
